<?xml version="1.0" encoding="utf-8"?>
<!-- Generator: Adobe Illustrator 20.0.0, SVG Export Plug-In . SVG Version: 6.00 Build 0)  -->
<svg version="1.1" id="Layer_1" xmlns="http://www.w3.org/2000/svg" xmlns:xlink="http://www.w3.org/1999/xlink" x="0px" y="0px"
	 viewBox="0 0 93 89.9" style="enable-background:new 0 0 93 89.9;" xml:space="preserve">
<path d="M46.5,89c-1.9,0-3.9-0.3-5.7-1L8,75.9c-0.6-0.2-1-0.8-1-1.4v-73C7,1,7.2,0.6,7.6,0.3C8,0,8.6-0.1,9,0.1l32.8,12.1
	c3,1.1,6.3,1.1,9.3,0L84,0.1c0.5-0.2,1-0.1,1.4,0.2C85.8,0.6,86,1,86,1.5v73c0,0.6-0.4,1.2-1,1.4L52.2,88C50.4,88.7,48.4,89,46.5,89
	z M10,73.5l31.8,11.7l0,0c3,1.1,6.3,1.1,9.3,0L83,73.5V3.7L52.2,15c-3.7,1.4-7.7,1.4-11.4,0L10,3.7V73.5z"/>
<path d="M46.5,75.6c-0.1,0-0.1-0.1-0.1-0.1V23.8c0-0.1,0.1-0.1,0.1-0.1c0.1,0,0.1,0.1,0.1,0.1v51.7C46.6,75.6,46.6,75.6,46.5,75.6z"
	/>
<rect x="55.9" y="44.3" transform="matrix(0.9376 -0.3477 0.3477 0.9376 -11.4438 25.4033)" width="18.4" height="0.5"/>
<rect x="57.3" y="46.2" transform="matrix(0.9375 -0.3479 0.3479 0.9375 -12.0802 25.531)" width="15.5" height="0.5"/>
<polygon points="60.3,47.4 60.2,47.1 69.8,43.5 69.9,43.9 "/>
<rect x="58.4" y="47.1" transform="matrix(0.9376 -0.3476 0.3476 0.9376 -12.3909 25.5666)" width="13.4" height="0.4"/>
<rect x="58.4" y="48" transform="matrix(0.9376 -0.3476 0.3476 0.9376 -12.7073 25.6234)" width="13.4" height="0.4"/>
<rect x="58.4" y="48.9" transform="matrix(0.9376 -0.3476 0.3476 0.9376 -13.0237 25.6802)" width="13.4" height="0.4"/>
<rect x="56.6" y="52.9" transform="matrix(0.938 -0.3467 0.3467 0.938 -14.3895 25.8487)" width="16.9" height="0.5"/>
<rect x="60" y="53.8" transform="matrix(0.9376 -0.3477 0.3477 0.9376 -14.7237 25.9888)" width="10.2" height="0.4"/>
<polygon points="58.8,57.5 58.6,57.1 71.3,52.3 71.5,52.7 "/>
<polygon points="59.2,58.2 59.1,57.8 70.9,53.4 71.1,53.8 "/>
<path d="M46.5,89.9c-0.6,0-1.2,0-1.8-0.1L1.3,85C0.6,84.9,0,84.3,0,83.5v-73c0-0.4,0.2-0.8,0.5-1.1S1.2,9,1.7,9l6.9,0.8
	c0.8,0.1,1.4,0.8,1.3,1.7c-0.1,0.8-0.8,1.4-1.7,1.3L3,12.2v70l42,4.7c1,0.1,2,0.1,3,0l42-4.7v-70l-5.2,0.6c-0.8,0.1-1.6-0.5-1.7-1.3
	c-0.1-0.8,0.5-1.6,1.3-1.7L91.3,9c0.4,0,0.8,0.1,1.2,0.4c0.3,0.3,0.5,0.7,0.5,1.1v73c0,0.8-0.6,1.4-1.3,1.5l-43.3,4.8
	C47.7,89.9,47.1,89.9,46.5,89.9z"/>
<g>
	<g>
		<path d="M65.1,21.2c2.4-1,4.4,0.2,4.4,2.6s-2,5.2-4.4,6.1c-2.4,1-4.4-0.2-4.4-2.6S62.7,22.2,65.1,21.2z"/>
		<path d="M60.6,30.8c2.4-1,4.4,0.2,4.4,2.6c0,2.4-2,5.2-4.4,6.1c-2.4,1-4.4-0.2-4.4-2.6C56.2,34.5,58.1,31.8,60.6,30.8z"/>
		<path d="M69.7,27.1c2.4-1,4.4,0.2,4.4,2.6c0,2.4-2,5.2-4.4,6.1c-2.4,1-4.4-0.2-4.4-2.6C65.3,30.8,67.2,28.1,69.7,27.1z"/>
	</g>
</g>
</svg>
