<?xml version="1.0" encoding="utf-8"?>
<!-- Generator: Adobe Illustrator 20.0.0, SVG Export Plug-In . SVG Version: 6.00 Build 0)  -->
<svg version="1.1" id="Layer_1" xmlns="http://www.w3.org/2000/svg" xmlns:xlink="http://www.w3.org/1999/xlink" x="0px" y="0px"
	 viewBox="0 0 24.9 24.9" style="enable-background:new 0 0 24.9 24.9;" xml:space="preserve">
<path d="M22.8,24.8c-0.5,0-1-0.2-1.4-0.6L0.7,3.5c-0.8-0.8-0.8-2,0-2.8c0.8-0.8,2-0.8,2.8,0l20.7,20.7c0.8,0.8,0.8,2,0,2.8
	C23.8,24.6,23.3,24.8,22.8,24.8z"/>
<path d="M2.1,24.8c-0.5,0-1-0.2-1.4-0.6c-0.8-0.8-0.8-2,0-2.8L21.4,0.7c0.8-0.8,2-0.8,2.8,0c0.8,0.8,0.8,2,0,2.8L3.5,24.2
	C3.1,24.6,2.6,24.8,2.1,24.8z"/>
</svg>
