<?xml version="1.0" encoding="utf-8"?>
<!-- Generator: Adobe Illustrator 20.0.0, SVG Export Plug-In . SVG Version: 6.00 Build 0)  -->
<svg version="1.1" id="Layer_1" xmlns="http://www.w3.org/2000/svg" xmlns:xlink="http://www.w3.org/1999/xlink" x="0px" y="0px"
	 viewBox="0 0 193.4 193.4" style="enable-background:new 0 0 193.4 193.4;" xml:space="preserve">
<style type="text/css">
	.st0{fill:#687DBD;}
</style>
<path class="st0" d="M96.7,0C43.3,0,0,43.3,0,96.7c0,53.4,43.3,96.7,96.7,96.7c53.4,0,96.7-43.3,96.7-96.7
	C193.4,43.3,150.1,0,96.7,0z M107.8,122.3c-9.5,13.4-28.7,17.4-43.7,11.6c-15-5.7-25.6-21.6-24.4-37.7c0.3-19.8,18.5-37.1,38.3-36.4
	c9.5-0.4,18.4,3.7,25.6,9.5c-3.1,3.5-6.3,6.9-9.7,10.1c-8.7-6-21.1-7.8-29.9-0.8c-12.5,8.6-13,29-1,38.3c11.7,10.6,33.7,5.3,37-10.9
	c-7.3-0.1-14.6,0-22-0.2c0-4.4,0-8.7,0-13.1c12.2,0,24.4-0.1,36.7,0C115.5,102.9,114.1,113.8,107.8,122.3z M160.5,103.5
	c-3.6,0-7.3,0.1-11,0.1c0,3.7-0.1,7.3-0.1,11c-3.6,0-7.3,0-10.9,0c0-3.6,0-7.3-0.1-10.9c-3.6,0-7.3-0.1-11-0.1c0-3.6,0-7.3,0-10.9
	c3.6,0,7.3-0.1,11-0.1c0-3.7,0.1-7.3,0.1-11c3.6,0,7.3,0,10.9,0c0,3.6,0,7.3,0.1,11c3.6,0,7.3,0,11,0.1
	C160.5,96.3,160.5,99.9,160.5,103.5z"/>
</svg>
