<?xml version="1.0" encoding="utf-8"?>
<!-- Generator: Adobe Illustrator 20.0.0, SVG Export Plug-In . SVG Version: 6.00 Build 0)  -->
<svg version="1.1" id="Layer_1" xmlns="http://www.w3.org/2000/svg" xmlns:xlink="http://www.w3.org/1999/xlink" x="0px" y="0px"
	 viewBox="0 0 195 195" style="enable-background:new 0 0 195 195;" xml:space="preserve">
<style type="text/css">
	.st0{fill:#687DBD;}
</style>
<g>
	<polygon class="st0" points="140.8,73.3 140.8,56.7 140.8,54.2 138.3,54.2 121.7,54.2 121.7,73.3 	"/>
	<path class="st0" d="M128.3,97.5c0,17-13.8,30.8-30.8,30.8c-17,0-30.8-13.8-30.8-30.8c0-4.1,0.8-8,2.3-11.6H52.2V132
		c0,6,4.8,10.8,10.8,10.8H132c5.9,0,10.8-4.8,10.8-10.8V85.9H126C127.5,89.5,128.3,93.4,128.3,97.5z"/>
	<path class="st0" d="M97.5,117.3c10.9,0,19.8-8.9,19.8-19.8c0-4.3-1.4-8.3-3.8-11.6c-3.6-5-9.5-8.3-16.1-8.3
		c-6.6,0-12.5,3.3-16.1,8.3c-2.3,3.3-3.7,7.2-3.7,11.6C77.7,108.4,86.6,117.3,97.5,117.3z"/>
	<path class="st0" d="M97.5,0C43.7,0,0,43.7,0,97.5C0,151.3,43.7,195,97.5,195c53.8,0,97.5-43.7,97.5-97.5C195,43.7,151.3,0,97.5,0z
		 M153.8,85.9V132c0,12-9.8,21.8-21.8,21.8H63c-12,0-21.8-9.8-21.8-21.8V85.9V63c0-12,9.8-21.8,21.8-21.8H132
		c12,0,21.8,9.8,21.8,21.8V85.9z"/>
</g>
</svg>
