<?xml version="1.0" encoding="utf-8"?>
<!-- Generator: Adobe Illustrator 20.0.0, SVG Export Plug-In . SVG Version: 6.00 Build 0)  -->
<svg version="1.1" id="Layer_1" xmlns="http://www.w3.org/2000/svg" xmlns:xlink="http://www.w3.org/1999/xlink" x="0px" y="0px"
	 viewBox="0 0 193.4 193.4" style="enable-background:new 0 0 193.4 193.4;" xml:space="preserve">
<style type="text/css">
	.st0{fill:#687DBD;}
</style>
<g>
	<path class="st0" d="M96.7,0C43.3,0,0,43.3,0,96.7s43.3,96.7,96.7,96.7c53.4,0,96.7-43.3,96.7-96.7S150.1,0,96.7,0z M78.4,54.8
		L78.4,54.8c-0.5,0-1.1,0-1.7,0c-3.9,0.3-8.3,2.4-12.1,5.3c-3.8,2.9-7,6.8-8.3,10.8c-0.2,0.5-0.3,1.1-0.4,1.6l0,0l-3.3-4.4
		c-0.1-1.2,0.1-2.5,0.6-3.8c1.2-3.6,4.1-7.2,7.6-10c3.5-2.8,7.5-4.7,10.9-5c1-0.1,2,0,2.9,0.2L78.4,54.8z M53.7,51.9
		c1.5-1.7,3.3-3.1,5.1-4.3c1.8-1.2,3.8-2.1,5.6-2.7c3.1-0.9,5.9-0.9,7.9,1.8l0,0l0.3,0.4l0,0c-0.4,0-0.7,0-1.1,0
		c-3.9,0.3-8.3,2.4-12.2,5.5c-3.8,3-7,7-8.3,11.1c-0.2,0.6-0.3,1.1-0.5,1.7l-0.4-0.5C48,60.9,50,56,53.7,51.9z M144,99
		c-3.2,7.4-7.8,14.3-13,20.5c-5.3,6.3-11.5,12.1-18.2,16.9c-6.5,4.7-14,8.7-21.7,10.9c-6.8,1.9-14.1,2.4-20.8,0.1
		c-2.7-0.9-5.2-2.3-7.4-4c-6-4.7-9.8-10.9-10.5-18.6c-0.8-8.9,2.8-18,7.3-25.4c2.2-3.6,4.6-7,7.3-10.2l0.8-1l-2.9-3.8l-0.3,0.4
		c-6.4,8-13.7,19.8-15.1,30.1c-0.2,1.3-1.3,2.1-2.6,2c-1.3-0.2-2.2-1.3-2-2.6c1.5-11.4,9.1-23.8,16.2-32.6l0.9-1.1L58,75.4
		c-0.1-1.2,0.1-2.5,0.5-3.7c1-3.1,3.3-6.2,6.2-8.7l19.7,26.4c0,0.1,0,0.1,0.1,0.2l0,0c0.3,0.8,0.5,1.7,0.7,2.6
		c0.1,0.9,0.2,1.8,0.2,2.7c0,2.2-0.4,4.2-1.2,6.1c-0.7,1.7-1.7,3.2-3,4.6l-0.8-0.3L70.5,92l-0.4,0.5c-2.4,2.9-4.6,6-6.6,9.3
		c-4,6.6-7.4,14.8-6.7,22.6c0.6,6.4,3.8,11.4,8.8,15.4c1.7,1.3,3.6,2.4,5.6,3.2c5.9,2.2,12.5,1.7,18.5,0c7.2-2,14.2-5.9,20.3-10.2
		c6.4-4.6,12.3-10.1,17.4-16.2c4.9-5.8,9.2-12.4,12.3-19.4c5.9-13.5,6.8-28.5-5.4-38.8c-3.8-3.3-8.3-5.2-13.3-5.9
		c-4.6-0.6-9.3-0.1-13.7,1.2c-5,1.4-9.9,3.6-14.4,6.2c-2,1.2-5.3,3.3-7.2,4.7l3.5,4.6c4.7-2.9,11.7-6.7,16.8-8.4
		c4.2-1.4,9-2.3,13.3-1.5c3.5,0.6,6.8,2.3,9.5,4.6c2.6,2.3,4.7,5.4,5.5,8.7c1.8,7.9,1.5,15-1.7,22.5c-4.1,9.5-12.2,18.1-19.7,25
		c-0.9,0.9-2.4,0.8-3.3-0.1c-0.9-0.9-0.8-2.4,0.1-3.3c4.2-3.9,8.4-8.1,11.9-12.6c2.6-3.3,5-7,6.7-10.9c2.8-6.6,3-12.8,1.4-19.7
		c-0.6-2.4-2.2-4.7-4.1-6.3c-2-1.8-4.5-3.1-7.2-3.5c-3.7-0.6-7.9,0.2-11.4,1.4c-4.5,1.5-10.9,4.9-15.2,7.6L102.7,87l0.2,1.5
		c-1.1,0.7-2.3,1.2-3.6,1.6c-1.4,0.4-3,0.7-4.6,0.7c-1.6,0-3.1-0.2-4.5-0.6c-1.3-0.4-2.5-0.9-3.6-1.6l0,0l-20.1-27
		c3.3-2.5,7.1-4.1,10.4-4.4c1.2-0.1,2.4,0,3.3,0.3c0,0,0.1,0,0.1,0l0,0l2.5,3.3c2.1-1.5,5.6-3.8,7.7-5c4.9-2.8,10.1-5.2,15.6-6.7
		c5-1.3,10.3-1.9,15.4-1.2c5.9,0.8,11.1,3.1,15.6,7C151.2,66.5,150.7,83.5,144,99z M87.5,91.9c0-0.1,0-0.2,0-0.3
		c0.7,0.3,1.5,0.6,2.2,0.8c1.6,0.5,3.3,0.7,5.1,0.7c1.8,0,3.6-0.3,5.3-0.8c1.2-0.4,2.3-0.8,3.3-1.4v0l2.4,15.6v0
		c-1.6,0.5-3.1,1.3-4.3,2.4c-1.2,1.1-2.1,2.4-2.7,3.9l0,0l-15.3-6.4l0,0l0,0c1.2-1.4,2.1-2.9,2.8-4.6c0.9-2.1,1.4-4.5,1.4-7
		C87.7,93.9,87.7,92.9,87.5,91.9z M106.1,108.8l1.2,7.6l-6.4-2.7l0,0l0,0l0,0c0.5-1.2,1.2-2.2,2.2-3.1
		C103.9,109.9,105,109.2,106.1,108.8z"/>
	<path class="st0" d="M88.5,69.5l-1,0.6L90,74l1-0.6c0.3-0.2,0.6-0.4,1-0.6l-2.8-3.7C89,69.2,88.7,69.4,88.5,69.5L88.5,69.5z"/>
	<path class="st0" d="M82.9,60.9l-1,0.7l2.8,3.7l0.9-0.6c0.1,0,0.1-0.1,0.2-0.1L83,60.8C82.9,60.8,82.9,60.9,82.9,60.9z"/>
	<polygon class="st0" points="70.7,91.8 67.8,88.1 67.8,88.1 67.7,88.2 70.5,92 	"/>
	<polygon class="st0" points="62.1,80.5 62,80.6 64.8,84.4 65,84.1 	"/>
</g>
</svg>
