<?xml version="1.0" encoding="utf-8"?>
<!-- Generator: Adobe Illustrator 20.0.0, SVG Export Plug-In . SVG Version: 6.00 Build 0)  -->
<svg version="1.1" id="Layer_1" xmlns="http://www.w3.org/2000/svg" xmlns:xlink="http://www.w3.org/1999/xlink" x="0px" y="0px"
	 viewBox="0 0 194.4 194.4" style="enable-background:new 0 0 194.4 194.4;" xml:space="preserve">
<style type="text/css">
	.st0{fill-rule:evenodd;clip-rule:evenodd;fill:#687DBD;}
</style>
<g>
	<path class="st0" d="M102.2,81.1c6.9-1.8,13.3-9.5,10.9-18.7c-1.9-7.1-9.4-13.6-18.7-11C74.3,57,82.6,86.3,102.2,81.1z"/>
	<path class="st0" d="M97.2,0C43.5,0,0,43.5,0,97.2s43.5,97.2,97.2,97.2c53.7,0,97.2-43.5,97.2-97.2S150.9,0,97.2,0z M91,35.9
		c18.9-5.3,34.4,9,37.8,23.6c4.3,18.8-9.1,33.9-23.6,37.2C66.4,105.5,49.7,47.6,91,35.9z M125.2,116.8c-10.6,5.4-11.1,3.9-19.4,6.5
		c1.4,2.9,16.6,17.1,20.9,21.5c7.2,7.3,1.1,15.6-6.3,14.8c-4.7-0.5-19.4-16.4-22-19.7c-6,3-16.5,18.7-22.3,19.6
		c-7.6,1.3-14-7.6-6.3-15.3l20.7-20.8c-1.9-1-7.6-1.8-10.4-2.7C50,110.8,60.8,96.2,69.4,97.1c3.1,0.3,5.9,2.9,8.3,4.3
		c12.6,7.3,29.1,7.2,41.5-0.3c2.7-1.6,4.9-4.3,8.9-4C133.5,97.4,144.5,106.9,125.2,116.8z"/>
</g>
</svg>
