<?xml version="1.0" encoding="utf-8"?>
<!-- Generator: Adobe Illustrator 20.0.0, SVG Export Plug-In . SVG Version: 6.00 Build 0)  -->
<svg version="1.1" id="Layer_1" xmlns="http://www.w3.org/2000/svg" xmlns:xlink="http://www.w3.org/1999/xlink" x="0px" y="0px"
	 viewBox="0 0 193.4 193.4" style="enable-background:new 0 0 193.4 193.4;" xml:space="preserve">
<style type="text/css">
	.st0{fill:#687DBD;}
</style>
<path class="st0" d="M96.7,0C43.3,0,0,43.3,0,96.7c0,53.4,43.3,96.7,96.7,96.7c53.4,0,96.7-43.3,96.7-96.7
	C193.4,43.3,150.1,0,96.7,0z M139.7,74.8c0,1,0.1,1.9,0.1,2.9c0,29.4-22.3,63.2-63.2,63.2c-12.5,0-24.2-3.7-34.1-10
	c1.7,0.2,3.5,0.3,5.3,0.3c10.4,0,20-3.6,27.6-9.5c-9.7-0.2-17.9-6.6-20.8-15.4c1.4,0.3,2.7,0.4,4.2,0.4c2,0,4-0.3,5.9-0.8
	c-10.2-2-17.8-11-17.8-21.8c0-0.1,0-0.2,0-0.3c3,1.7,6.4,2.7,10.1,2.8c-6-4-9.9-10.8-9.9-18.5c0-4.1,1.1-7.9,3-11.2
	c11,13.4,27.3,22.3,45.8,23.2c-0.4-1.6-0.6-3.3-0.6-5.1c0-12.3,9.9-22.2,22.2-22.2c6.4,0,12.2,2.7,16.2,7c5.1-1,9.8-2.8,14.1-5.4
	c-1.7,5.2-5.2,9.5-9.8,12.3c4.5-0.5,8.8-1.7,12.8-3.5C147.8,67.7,144.1,71.6,139.7,74.8z"/>
</svg>
