<svg id="Layer_1" data-name="Layer 1" xmlns="http://www.w3.org/2000/svg" viewBox="0 0 195 195"><defs><style>.cls-1{fill:#9f9d95;}</style></defs><title>vk</title><path class="cls-1" d="M99.47,86.73q5.06,0,7.15-2.5c1.39-1.66,2.08-5.22,2.08-7.11,0-5.13-3.24-7.48-9.72-7.48H88.23V86.73Z"/><path class="cls-1" d="M101.29,106.31H88.1v16.74h14.16q5.27,0,7.74-2.53a8,8,0,0,0,2.46-5.7,8.57,8.57,0,0,0-2.39-5.84Q107.67,106.31,101.29,106.31Z"/><path class="cls-1" d="M97.5,0A97.5,97.5,0,1,0,195,97.5,97.5,97.5,0,0,0,97.5,0Zm37.18,133.54c-4.33,5.38-11.09,10-25.25,10H64.32V51.42h43q15,0,21.86,7.36c4.58,4.91,6.87,8.72,6.87,15a20.9,20.9,0,0,1-4,12.46c-2.66,3.71-6.63,5.25-11.9,6.65,12.26,2.88,21,10.87,21,22.3A28.46,28.46,0,0,1,134.68,133.54Z"/></svg>